<?xml version="1.0" encoding="UTF-8"?>
<svg xmlns="http://www.w3.org/2000/svg" version="1.1" viewBox="0 0 180 57">
  <defs>
    <style>
      .cls-1 {
        fill: #fff;
      }
    </style>
  </defs>
  <!-- Generator: Adobe Illustrator 28.7.1, SVG Export Plug-In . SVG Version: 1.2.0 Build 142)  -->
  <g>
    <g id="Capa_1">
      <g>
        <path class="cls-1" d="M79.43,14.09c.13.08.23.18.31.31.08.13.11.27.11.43s-.04.3-.11.43c-.08.13-.18.24-.31.32-.13.08-.28.12-.44.12s-.3-.04-.43-.12c-.13-.08-.23-.18-.31-.31-.08-.13-.11-.27-.11-.43s.04-.3.11-.43c.08-.13.18-.24.31-.32.13-.08.28-.12.43-.12s.3.04.43.12ZM78.66,14.28c-.1.06-.18.14-.24.24-.06.1-.09.21-.09.33s.03.23.09.33c.06.1.14.18.23.24s.21.09.33.09.23-.03.33-.09c.1-.06.18-.14.24-.24.06-.1.09-.21.09-.33s-.03-.23-.09-.33c-.06-.1-.14-.18-.23-.24-.1-.06-.21-.09-.33-.09s-.23.03-.33.09ZM79.19,14.46c.06.03.11.06.15.1l-.12.15s-.06-.06-.1-.08c-.04-.02-.07-.03-.11-.03-.06,0-.12.02-.16.07-.04.04-.06.1-.06.16s.02.12.06.17c.04.04.1.07.16.07.03,0,.07,0,.11-.03.04-.02.07-.04.1-.07l.12.14s-.1.08-.16.11c-.06.03-.12.04-.18.04-.08,0-.16-.02-.22-.05-.07-.04-.12-.09-.16-.15-.04-.06-.06-.14-.06-.22s.02-.15.06-.21c.04-.06.09-.11.16-.15.07-.04.14-.05.23-.05.06,0,.12.01.18.04Z"/>
        <path class="cls-1" d="M44.98,28.37l8.36-14.05c.07-.11.19-.18.32-.18h6.83c.08,0,.1.07.03.18l-7.81,14.05"/>
        <path class="cls-1" d="M37.45,28.37l-8.25,13.87c-.06.1-.08.21-.04.29.04.08.12.13.23.13h6.8c.17,0,.36-.12.46-.28l8.33-14.01h-7.52Z"/>
        <path class="cls-1" d="M83.77,42.2l-7.06-27.79c-.04-.16-.19-.28-.36-.28h-7.45c-.13,0-.25.07-.32.18l-16.25,27.32h-.91v1.03h8.36c.13,0,.26-.07.32-.19l2.63-4.72h11.53l1.01,4.62c.04.17.19.29.36.29h7.77c.11,0,.22-.05.29-.14.07-.09.09-.21.07-.32ZM66.24,31.46l4.81-8.66,1.87,8.66h-6.68Z"/>
        <path class="cls-1" d="M52.7,28.37l-8.25,13.87c-.06.1-.08.21-.04.29.04.08.12.13.23.13h6.8c.17,0,.36-.12.46-.28l8.33-14.01h-7.52Z"/>
        <g>
          <path class="cls-1" d="M106.29,20.97l-10.57,21.52c-.05.11-.16.18-.28.18h-7.99c-.14,0-.27-.1-.31-.24l-5.37-21.52c-.05-.2.1-.39.31-.39h7.46c.15,0,.28.1.31.25l2.67,12.69c.01.06.1.07.12.01l5.45-12.77c.05-.12.16-.19.29-.19h7.63c.23,0,.39.24.28.45Z"/>
          <path class="cls-1" d="M122.57,21.53c1.68.84,2.97,2.02,3.87,3.54.9,1.52,1.34,3.28,1.34,5.29,0,.95-.1,1.94-.31,2.96-.03.15-.16.25-.31.25h-14.86s-.07.04-.06.07c.15,1.05.56,1.85,1.25,2.41.71.57,1.64.86,2.81.86,1.63,0,3.15-.53,4.58-1.58.13-.09.31-.08.42.03l3.73,3.84c.13.13.12.34-.02.46-2.53,2.19-5.53,3.28-8.99,3.28-2.39,0-4.48-.41-6.27-1.22-1.79-.81-3.18-1.98-4.15-3.5-.98-1.52-1.47-3.28-1.47-5.29,0-2.42.54-4.59,1.63-6.52,1.09-1.93,2.58-3.43,4.48-4.52,1.9-1.09,4.04-1.63,6.43-1.63,2.25,0,4.22.42,5.9,1.26ZM120,28.66c0-.81-.26-1.47-.77-1.97-.52-.5-1.19-.75-2.04-.75-.92,0-1.78.33-2.57,1-.77.65-1.36,1.49-1.8,2.54-.02.04.01.09.06.09h6.94s.06-.02.06-.05c.07-.31.11-.59.11-.85Z"/>
          <path class="cls-1" d="M133.93,41.71c-1.57-.83-2.79-2-3.64-3.52-.86-1.52-1.28-3.3-1.28-5.33,0-2.47.54-4.66,1.63-6.58,1.09-1.91,2.6-3.4,4.54-4.46,1.94-1.06,4.16-1.59,6.66-1.59,2.31,0,4.3.5,5.97,1.51,1.58.95,2.76,2.28,3.52,3.99.07.16,0,.34-.16.41l-6.03,2.83c-.15.07-.34.01-.41-.14-.29-.57-.68-1.03-1.18-1.36-.57-.38-1.25-.57-2.04-.57-1.19,0-2.19.5-2.97,1.51-.79,1-1.18,2.29-1.18,3.87,0,1.28.29,2.29.86,3.03.57.75,1.36,1.12,2.36,1.12,1.56,0,2.76-.73,3.6-2.18.08-.15.27-.2.42-.12l5.5,2.92c.16.08.22.28.13.44-1,1.68-2.4,3-4.22,3.95-1.91,1-4.09,1.51-6.54,1.51-2.12,0-3.96-.41-5.54-1.24Z"/>
        </g>
      </g>
    </g>
  </g>
</svg>