<?xml version="1.0" encoding="UTF-8"?>
<svg xmlns="http://www.w3.org/2000/svg" version="1.1" viewBox="0 0 963.78 793.7">
  <defs>
    <style>
      .cls-1 {
        fill: #1d1d1b;
      }

      .cls-2 {
        fill: none;
      }
    </style>
  </defs>
  <!-- Generator: Adobe Illustrator 28.7.1, SVG Export Plug-In . SVG Version: 1.2.0 Build 142)  -->
  <g>
    <g id="Monogram__x2B__name">
      <g>
        <rect class="cls-2" x="-155.91" y="-240.94" width="1275.59" height="1275.59"/>
        <g>
          <path class="cls-1" d="M646.78,366.95c-11.79-11.14-65.36-62.1-79.75-105.7-2.9-8.78-4.54-17.6-4.54-26.27,0-7.47,1.64-14.71,4.54-22.09,6.55-16.7,21.1-34.52,35.9-49.71,6.32-6.49,33.59-33.14,42.6-41.93,2.04-1.99,3.5-4.86,3.99-7.36.52-2.66.72-8.24.72-10.17l.08-5.11-162.85,126.84c-1.79,1.32-4.47,3.8-5.44,7.06-.98-3.26-3.67-5.75-5.41-7.07l-162.85-126.84v272.76l162.85-126.84c1.74-1.32,4.44-3.81,5.42-7.09.83,2.75,2.81,4.77,3.49,5.42,11.79,11.14,65.36,62.1,79.75,105.7,2.9,8.78,4.54,17.6,4.54,26.27,0,7.47-1.64,14.58-4.54,21.9-6.54,16.54-21.07,34.19-35.86,49.25-6.32,6.44-33.6,32.89-42.61,41.62-1.99,1.93-3.5,4.79-4,7.3-.41,2.05-.71,8.57-.71,11.2l-.08,5.11,162.81-126.84c2.23-1.63,5.81-5.06,5.81-9.54,0-3.97-3.01-7.03-3.87-7.86ZM350.29,334.74c-12.67,9.84-22.17,17.67-28.77,22.76-.58.45-.56-.94-.57-1.71,0-.52.02-2.02.43-2.39,13.88-12.46,68.66-54.37,84.56-94.27,3.24-8.14,5.12-16.13,5.12-24.15s-1.88-16.01-5.12-24.15c-15.9-39.9-70.68-81.78-84.56-94.24-.41-.36-.44-1.89-.43-2.41,0-.77.12-2.05.7-1.61,6.6,5.1,15.97,12.82,28.64,22.66,12.2,9.47,25.24,21.09,38.09,34.31,20.09,20.67,35.47,43.17,35.47,65.43s-15.37,44.77-35.47,65.43c-12.86,13.22-25.9,24.84-38.09,34.31ZM471.92,242.15c-16.32,11.5-40.94,31.92-73.74,57.53-.62.49-.48-1.47-.39-2.03.14-.85.6-2.42.95-2.75,17.58-17.01,29.62-40.22,29.77-40.48,5.52-10.57,6.93-17.6,17.22-17.6h27.94c4.26,0,.18,3.97-1.74,5.32ZM576.62,169.94c12.85-13.09,26.07-24.4,38.09-33.98,5.12-4.06,9.57-7.56,13.78-10.74,2.86-2.16,5.09-3.87,6.1-4.65.43-.33.43.32.43.58,0,1.4.08,2.56-1.09,3.76-.85.88-1.93,1.83-4.31,3.84-22.33,18.81-58.36,51.21-70.56,81.83-3.24,8.14-5.12,16.4-5.12,24.35s1.88,16.2,5.12,24.34c4.88,12.24,11.93,25.42,20.45,37.41,3.62,4.95,5.28,7.03,7.67,10.39,1.37,1.74,2.01,4.49,2.14,5.89.02.27-.26.36-.45.25-.49-.32-1.49-1.17-2.36-1.97-2.71-2.47-6.08-5.88-10.39-10.19-20.38-20.39-34.97-44.08-34.97-66.13s15.36-44.53,35.46-64.99ZM492.21,242.15c-1.82-1.48-6.15-5.32-1.89-5.32h27.02c10.29,0,14.15,10.24,19.66,20.81.14.24,12.9,22.26,29.49,39.09,1.27,1.3,1.69,3.41,2.04,4.81.27,1.07.05,1.38-1.06.56-33.36-24.52-69.02-54.84-75.27-59.95ZM529.11,458.28c-1.58,1.39-2.82,2.33-2.72,1.26.12-1.36.11-3.41.89-4.17,19.69-19.36,39.19-40.87,46.28-58.05,3.1-7.51,5.12-15.06,5.12-22.48,0-8.13-1.36-16.42-4.24-24.66-6.45-18.48-20.84-38.53-35.75-55.93-3.73-4.35-6.86-8.02-8.03-9.54-.4-.52-.41-.95.06-.91,1.12.11,2.32.59,3.04,1.23.37.33,4.56,4.71,6.89,7.25,4.63,5.04,9.34,10.39,14.17,16.07,17.84,20.94,33.5,43.93,33.5,66.49,0,20.57-14.62,40.86-33.84,59.93-4.92,4.89-13.85,13.34-25.39,23.51ZM639.69,382.68c-18.52,13.05-46.25,35.68-83.3,64.99-1.02.81-.84-1.59-.8-2.31.05-.71.24-2.05.64-2.43,19.95-19.31,34.02-46.04,34.19-46.33,6.26-12,7.86-19.98,19.54-19.98h31.71c4.83,0,.2,4.51-1.98,6.04Z"/>
          <path class="cls-1" d="M856.19,629.21c0,16.52,7.73,24.68,24.89,24.68,15.68,0,24.26-8.37,24.26-22.46s-4.98-20.65-18.11-24.68l-6.89-2.12c-7.84-2.44-10.7-5.3-10.7-12.92,0-6.67,3.39-9.85,10.59-9.85,8.47,0,11.33,3.71,11.54,12.18h12.08c0-15.99-7.84-22.99-23.83-22.99-15.04,0-22.56,8.9-22.56,21.29,0,13.35,5.61,19.49,18.43,23.41l7.31,2.22c7.31,2.22,9.96,5.93,9.96,13.88,0,7.41-3.28,11.23-12.08,11.23-9.32,0-12.71-4.66-12.82-13.88h-12.08ZM801.54,652.72h41.63v-11.02h-29.55v-24.79h25.1v-10.91h-25.1v-22.77h28.28v-11.02h-40.36v80.5ZM746.25,652.72h39.4v-11.02h-27.33v-69.49h-12.08v80.5ZM711.93,652.72h12.08v-80.5h-12.08v80.5ZM670.62,616.92c6.67,0,10.17,4.77,10.17,13.35,0,7.84-3.6,11.97-10.49,11.97h-12.92v-25.32h13.24ZM669.56,582.71c6.14,0,9.75,4.34,9.75,11.97s-3.18,11.76-9.22,11.76h-12.71v-23.73h12.18ZM645.41,652.72h25.74c14.3,0,21.93-7.84,21.93-22.03,0-10.06-3.71-16.74-11.23-19.17,6.46-2.97,9.22-9.96,9.22-18.54,0-13.45-7.31-20.76-20.66-20.76h-25v80.5ZM599.44,582.07c9,0,13.88,5.19,13.88,14.83v31.14c0,9.64-4.87,14.83-13.88,14.83s-13.88-5.19-13.88-14.83v-31.14c0-9.64,4.87-14.83,13.88-14.83M599.44,571.05c-16.31,0-25.95,9.85-25.95,26.27v30.61c0,16.21,9.64,25.95,25.95,25.95s25.95-9.75,25.95-25.95v-30.61c0-16.42-9.64-26.27-25.95-26.27M490.86,652.72h11.44v-61.33l14.72,38.98h10.38l14.62-38.88v61.23h11.44v-80.5h-14.19l-16.74,45.65-16.84-45.65h-14.83v80.5ZM444.89,582.07c9,0,13.88,5.19,13.88,14.83v31.14c0,9.64-4.87,14.83-13.88,14.83s-13.88-5.19-13.88-14.83v-31.14c0-9.64,4.87-14.83,13.88-14.83M444.89,571.05c-16.31,0-25.95,9.85-25.95,26.27v30.61c0,16.21,9.64,25.95,25.95,25.95s25.95-9.75,25.95-25.95v-30.61c0-16.42-9.64-26.27-25.95-26.27M374.67,652.72h12.08v-69.59h19.81v-10.91h-51.59v10.91h19.7v69.59ZM339.6,628.68v-56.46h-12.08v57.31c0,9.74-4.34,13.35-12.5,13.35s-12.6-3.6-12.6-13.35v-57.31h-12.08v56.46c0,16.1,8.47,25.21,24.68,25.21s24.57-9.11,24.57-25.21M236.86,619.99l8.9-37.6,8.79,37.6h-17.69ZM262.17,652.72h12.5l-19.91-80.5h-17.69l-19.7,80.5h11.86l5.19-22.14h22.56l5.19,22.14ZM122.14,629.21c0,16.52,7.73,24.68,24.89,24.68,15.68,0,24.26-8.37,24.26-22.46s-4.98-20.65-18.11-24.68l-6.88-2.12c-7.84-2.44-10.7-5.3-10.7-12.92,0-6.67,3.39-9.85,10.59-9.85,8.47,0,11.33,3.71,11.55,12.18h12.08c0-15.99-7.84-22.99-23.83-22.99-15.04,0-22.56,8.9-22.56,21.29,0,13.35,5.61,19.49,18.43,23.41l7.31,2.22c7.31,2.22,9.96,5.93,9.96,13.88,0,7.41-3.28,11.23-12.08,11.23-9.32,0-12.71-4.66-12.82-13.88h-12.08ZM80.3,583.02c9.11,0,14.09,5.19,14.09,14.83v29.24c0,9.64-4.98,14.83-14.09,14.83h-10.91v-58.9h10.91ZM57.53,652.72h22.99c16.31,0,25.95-9.53,25.95-25.53v-29.13c0-16.21-9.64-25.85-25.95-25.85h-22.99v80.5Z"/>
        </g>
      </g>
    </g>
  </g>
</svg>