<?xml version="1.0" encoding="UTF-8"?>
<svg xmlns="http://www.w3.org/2000/svg" version="1.1" viewBox="0 0 479.05 479.05">
  <defs>
    <style>
      .cls-1 {
        fill: #fff;
      }
    </style>
  </defs>
  <!-- Generator: Adobe Illustrator 28.7.1, SVG Export Plug-In . SVG Version: 1.2.0 Build 142)  -->
  <g>
    <g id="Calque_1">
      <g>
        <path class="cls-1" d="M237.05,332.22c28.92,0,55.74-13.43,75.51-37.8,19.79-24.4,30.69-57.83,30.69-94.14s-10.9-69.75-30.69-94.14c-19.77-24.38-46.59-37.8-75.51-37.8s-55.74,13.42-75.51,37.8c-19.79,24.4-30.68,57.83-30.68,94.14s10.9,69.75,30.68,94.14c19.77,24.38,46.59,37.8,75.51,37.8M237.05,80.41c52.61,0,92.51,49.56,94.04,115.92l-94.61-70.24-93.44,69.08c1.96-65.78,41.71-114.76,94.02-114.76M144.86,225.46l91.61-67.73,92.6,68.75c-1.12,6.93-2.69,13.6-4.66,19.98l-88.51-65.59-86.67,64.01c-1.84-6.21-3.32-12.69-4.37-19.42M235.89,212.52l78.35,58.06c-16.73,30.4-44.5,49.55-77.18,49.55s-61.3-19.72-77.94-50.92l76.77-56.69Z"/>
        <g>
          <polygon class="cls-1" points="135.73 387.22 155.82 387.22 155.82 415.97 163.72 415.97 163.72 387.22 183.8 387.22 183.8 380.52 135.73 380.52 135.73 387.22"/>
          <rect class="cls-1" x="118.78" y="380.52" width="7.9" height="35.45"/>
          <path class="cls-1" d="M397.68,380.69h-28.92v35.39h7.9v-28.7h19.15c7.46,0,12.13,2.74,12.13,11.09v17.61h7.9v-18.6c0-9.44-5.43-16.79-18.16-16.79"/>
          <path class="cls-1" d="M340.44,376.29h11.63c1.32,0,2.47-1.15,2.47-2.53s-1.15-2.58-2.47-2.58h-11.63c-1.43,0-2.58,1.15-2.58,2.58s1.16,2.53,2.58,2.53"/>
          <path class="cls-1" d="M226.93,402.07c10.94-.26,14.54-3.17,14.54-10.63,0-6.75-4.83-10.76-13-10.76h-35.61v35.39h7.9v-28.7h27.76c3.13,0,4.78,1.42,4.78,4.23,0,2.47-.78,4.86-5.88,4.7h-19.97v2.04l24.36,17.61h11.47l-20.26-13.9h3.91Z"/>
          <path class="cls-1" d="M284.87,379.93c-2.41-.1-4.86-.15-7.3-.15-4.16,0-6.86.15-6.88.15h-.13c-5.75.18-10.65,2.1-14.16,5.54-3.37,3.3-5.23,7.87-5.23,12.89v.05c0,10.75,7.81,18.16,19.44,18.43,2.41.1,4.87.15,7.31.15,4.15,0,6.86-.15,6.88-.15h.13c5.75-.18,10.65-2.1,14.17-5.54,3.37-3.29,5.23-7.87,5.23-12.89v-.05c0-10.54-7.82-17.94-19.45-18.43M295.89,398.29c-.03,6.83-4.47,11.25-11.59,11.55h-.31c-.43.04-2.1.16-5.72.16-2.41,0-4.73-.05-6.88-.15h-.12c-7.2-.19-11.68-4.62-11.68-11.56s4.44-11.31,11.59-11.61h.3s3-.15,7.07-.15c2.29,0,3.27.05,5.22.14h.3c7.39.36,11.8,4.68,11.8,11.58v.06Z"/>
          <polygon class="cls-1" points="314.59 416.08 357.72 416.08 357.72 409.38 322.49 409.38 322.49 401.43 353.39 401.43 353.39 395.02 322.49 395.02 322.49 387.38 357.72 387.38 357.72 380.69 314.59 380.69 314.59 416.08"/>
          <path class="cls-1" d="M320.25,376.29h11.58c1.37,0,2.53-1.15,2.53-2.53s-1.15-2.58-2.53-2.58h-11.58c-1.43,0-2.58,1.15-2.58,2.58s1.16,2.53,2.58,2.53"/>
          <path class="cls-1" d="M77.39,380.8h-.12c-5.64.18-10.44,1.99-13.89,5.26-3.3,3.13-5.12,7.47-5.12,12.23v.05c0,10.2,7.66,17.23,19.06,17.49,3.21.13,12.89.15,16.9.15,5.19,0,10.14-.02,11.61-.05v-6.77c-2.21.03-19.01.05-20.99.05-2.34,0-4.69-.05-6.81-.14-6.99-.17-11.51-4.38-11.51-10.72s4.46-10.62,11.37-10.89h.3s2.92-.15,6.93-.15c1.12,0,18.38.02,20.72.06v-6.65c-1.55-.03-3.98-.06-7.22-.06-8.88,0-21.1.14-21.22.15"/>
        </g>
      </g>
    </g>
  </g>
</svg>