<?xml version="1.0" encoding="UTF-8"?>
<svg xmlns="http://www.w3.org/2000/svg" version="1.1" viewBox="0 0 500 500">
  <defs>
    <style>
      .cls-1 {
        fill: #fff;
      }

      .cls-2 {
        fill: none;
      }
    </style>
  </defs>
  <!-- Generator: Adobe Illustrator 28.7.1, SVG Export Plug-In . SVG Version: 1.2.0 Build 142)  -->
  <g>
    <g id="Capa_1">
      <g>
        <rect class="cls-2" x="-31.76" y="-51.58" width="563.52" height="580.1"/>
        <g>
          <path d="M245.92,455.51c-54.3-25.25-101.46-66.63-132.8-116.5-31.33-49.85-47.81-107.84-51.87-182.51-1.31-24.15-1.31-54.34,0-92.28l.28-8,7.9-1.32c60.05-10.03,120.81-15.11,180.62-15.11s120.57,5.08,180.62,15.11l7.9,1.32.28,8c1.31,37.95,1.31,68.13,0,92.28-4.06,74.66-20.54,132.66-51.87,182.51-31.34,49.87-78.5,91.25-132.8,116.5l-4.13,1.92-4.13-1.92Z"/>
          <g>
            <g>
              <path class="cls-1" d="M166.09,292.4c-1.16.22-1.79-.4-1.96-1.18-.46-2.12-1.65-9.38-2.02-11.51-.21-1.18.15-1.82,1.21-2.16,5.18-1.67,13.89-4.62,20.9-7.09,1.8-.64,2.37-1.35,3.38-2.97,2.93-4.68,10.14-17.4,13.55-24,.48-.94.44-2.05-.1-2.96l-1.55-2.58c-.53-.89-1.78-1.82-2.78-2.08-7.13-1.82-16.56-4.14-21.02-5.21-.99-.24-2.02-.2-2.99.11l-.82.26c6.83,2.33,12.65,4.41,20.02,7.22.64.24,1.32.98,1.52,1.63l.68,2.23c.28.9.19,1.87-.24,2.72-3.13,6.13-8.56,14.26-12.89,19.49-.65.79-1.49,1.39-2.44,1.74-4.19,1.57-11.81,4.09-15.13,4.94-.66.17-.99.09-1.54-.29-2.41-1.69-7.4-6.36-7.4-6.36,0,0-.42,5.08-.45,7.36,0,.25.04.5.14.73.85,1.99,2.35,5.8,2.98,7.73.16.5.29.94.42,1.45.84,3.34,3.15,13.18,3.15,13.18.34,1.49,1.18,2.01,2.49,1.72,1.69-.37,7.11-1.89,9.33-2.63.34-.11.65-.3.91-.54,1.43-1.31,3.84-3.53,3.84-3.53,0,0-8.14,1.99-11.21,2.57Z"/>
              <path class="cls-1" d="M178.38,262.21c2.77-3.34,6.43-8.7,9.49-13.74l-22.67,18.69c3.71-1.13,8.76-2.84,11.79-3.97.55-.21,1.03-.54,1.39-.98Z"/>
              <path class="cls-1" d="M178.91,186.9l-4.05.35c-.32.03-.58.29-.61.61l-.38,4.81c-.02.25.21.45.45.39l4.1-.91c.49-.11,1.08-.56,1.29-1.03.5-1.15.64-2.49.12-3.68-.15-.36-.52-.58-.91-.55Z"/>
              <path class="cls-1" d="M139.42,247.11l6.15,7.22,1.81-12.48c-3.56.54-6.83,2.83-7.96,5.26Z"/>
              <path class="cls-1" d="M340.08,245.8c-2.51-4.46-15-21.37-30.64-37.68-.57-.59-1.25-1.07-2.01-1.39l-2.55-1.11s4.55,19.89,6.59,30.76c.26,1.38.94,2.65,1.94,3.65,6.99,6.92,11.6,12.31,15.45,18.01,1.68,2.48,2.65,5.36,2.85,8.34,1.06,15.8.55,37.5-1.21,49.59-.36,2.45-.95,3.32-2.55,4.61-15.13,12.24-40.15,33.78-50.89,44.4-1.13,1.12-1.55,1.62-2.24,2.67-1.41,2.13-2.92,5.29-2.92,5.29,0,0-2.55-7.82-3.12-12.08-.27-1.99-.29-2.54,0-4.57,1.3-9.13,7.68-30.19,8.72-33.34.09-.27.13-.56.13-.84v-1.98c-2.31,4.83-14.19,31.54-16.7,40.73-.53,1.94-.44,2.7.06,4.14,1.54,4.43,6.03,15.39,8.09,19.88,0,0,4.88-9.14,7.71-13.75.79-1.29,1.76-2.45,2.87-3.48,8.44-7.81,38.81-33.17,53-43.84,1.9-1.43,2.48-2.44,3-4.42,5.74-21.92,8.15-47.12,5.34-70.9-.12-.98-.44-1.83-.93-2.69Z"/>
              <path class="cls-1" d="M277.88,181.69c.58-1.01.8-2.18.6-3.32-.47-2.75-1.19-6-1.77-8.44-.11-.46-.42-.84-.84-1.04l-4.28-2.05c-.56-.27-1.19-.36-1.81-.25-10.33,1.82-21.19,3.97-29.4,5.84-.67.15-1.24.58-1.59,1.18l-2.56,4.42c-.2.34,0,.78.39.85,2.15.4,6.54,1.19,8.05,1.42.92.14,1.24.11,2-.2,5.2-2.16,13.71-5.46,20.04-7.76.5-.18,1.04-.19,1.55-.03l2.91.93c.42.14.78.43,1,.81.8,1.4,1.63,2.94,2.12,3.95.35.72.16,1.68-.45,2.56-2.15,3.11-5.83,8.01-8.35,11.07-.56.67-.74,1.58-.5,2.42,1.48,5.12,4.7,15.65,6.42,20.68.21.62.52,1.09,1,1.53l2.42,2.2s-3.85-17.81-4.77-22.9c-.14-.8-.09-1.61.37-2.27,2.03-2.97,5.67-8.51,7.44-11.58Z"/>
              <path class="cls-1" d="M370.16,196.34c-.3-1.35-.74-1.92-1.85-2.75-11.56-8.6-32.35-20.81-44.71-26-1.6-.67-3.37-.71-5-.11-5.9,2.16-15.33,6.13-25.12,10.73,0,0,4.31.32,6.38.56,1.05.12,1.46.1,2.48-.18,3-.81,8.34-2.14,12.55-3.09,2.05-.47,4.2,0,5.88,1.25,5.76,4.29,15.02,11.75,20.94,16.72,1.03.87,2.2,1.56,3.45,2.06,9.03,3.62,13,5.43,15.02,6.47,1.42.73,2.44,2.04,2.84,3.58,2.35,9.06,3.92,22.94,4.73,32.96.15,1.86-.1,3.72-.72,5.47-2.54,7.19-8.86,19.14-12.4,24.85-.32.51-.65.91-1.26,1.44-1.25,1.08-3.46,2.86-5.08,4.11-.31.24-.5.61-.51,1.01-.04,3.89-.78,11.39-.78,11.39,8.67-10.87,16.91-24.96,24.24-39.93.6-1.23.83-1.92.96-3.08,1.71-16.06.68-35.13-2.03-47.47Z"/>
              <path class="cls-1" d="M255.03,390.74c-2.04-4.58-12.65-29.7-15.52-39.31-1.01-3.4-1.14-4.32-.75-8.15,2.41-23.62,10.9-61.2,12.23-66.35.28-1.09.24-1.38.05-2.49-.34-1.96-1.48-8.7-1.48-8.7-3.84,8.89-17.5,45.61-22.55,67.22-.95,4.07-.79,5.16.07,7.38,7.26,18.81,25.75,52.78,29.15,57.91l-.76-5.92c-.07-.55-.21-1.08-.43-1.59Z"/>
              <path class="cls-1" d="M238.56,392.21s-4.03-2.61-5.27-3.44c-1.28-.85-1.73-1.22-2.33-1.77-8.4-7.61-37.9-43.85-46.73-59.61-1.48-2.64-1.92-3.89-1.77-6.55.16-3.03.75-8.9,1.35-12.34.37-2.14.86-3.56,2.68-5.21,5.01-4.55,13.11-12.69,17.34-16.99,1.85-1.88,2.78-3.08,3.76-4.93,3.88-7.27,15.74-33.02,19.71-43.61.7-1.87.75-2.4.48-4.35-.76-5.55-5.19-19.87-5.19-19.87l-.38,4.79c-.03.33-.01.66.04.99.35,2.07,1.7,10.28,1.66,14.5-.01,1.45-.09,1.99-.87,3.53-5.95,11.71-29.19,42.95-43.88,59.85-1.65,1.9-2.13,3.17-2.58,5.32-.76,3.57-1.62,11.72-2.17,18.2-.3,3.48-.07,4.67,2.15,8.35,8.86,14.73,39.02,50,48.85,58.18.65.54,1.34,1.01,2.09,1.41,3.46,1.86,12.92,6.55,12.92,6.55l-1.46-2.56c-.1-.17-.23-.32-.4-.43Z"/>
              <path class="cls-1" d="M194.75,182.07l18.74-5.86c1.1-.33,2.03-1.09,2.59-2.1l9.99-17.2c.24-.41-.06-.92-.53-.91l-8.54.12c-.74.01-1.68.16-2.38.39-7.42,2.48-18.02,7.19-23.98,10.32-.67.35-1.3.93-1.78,1.51l-9.02,11.11c-.3.36-.68.65-1.11.83l-5.84,2.48c-.28.12-.51.34-.63.61l-.27.59s12.34-.39,16.5-.7c2.27-.17,4.1-.52,6.28-1.18Z"/>
              <path class="cls-1" d="M229.08,141.51c23.59-1.77,50.7-1.27,57.28-1.12.98.02,1.95.19,2.88.5l4.82,1.61c-11.84.62-40.45,3.17-52.02,5.16l4.08.64c.29.05.58.06.87.04,8.56-.53,25.33-1.07,32.69-1.17,1.79-.03,2.73.14,4.56.84,4.28,1.64,12.89,5.54,16.43,7.34,1.86.94,3.15,1.26,5.05,1.34,3.85.16,9.73.57,14.09,1.03,1.18.13,2.33.47,3.39,1,8.95,4.51,19.63,10.9,26.95,15.82.43.29.9.48,1.41.58l3.62.71s-11.6-11.86-16.17-15.89c-.66-.58-1.38-1.09-2.14-1.53-17.28-9.88-32.81-17.94-41.56-21.62-1.4-.59-2.89-.95-4.4-1.06-26.72-2.02-54.7-1.53-75.38.29-1.48.13-2.65.85-3.35,1.86-.81,1.17-2.13,3.29-3.33,5.24-.59.95-1.31,1.81-2.15,2.55-3.73,3.26-9.99,8.53-13.96,11.52-.34.26-.51.39-.79.58-1.65,1.14-7.14,4.75-8.13,5.4-.38.25-.46.32-.74.67-.32.41-1.96,2.52-1.96,2.52,16.46-9.25,37.42-20.86,44.6-24.02,1.07-.47,2.21-.75,3.38-.84Z"/>
              <path class="cls-1" d="M152.25,193.72c-.2.27-.46.51-.74.7-14.65,10.45-22.85,17.11-26.1,19.84-1.32,1.29-2.58,2.56-3.74,3.75-1.03,1.07-1.28,1.47-1.34,2.32-.06.72-.11,1.68-.1,2.23,0,.31.08.55.25.81.21.31,1.36,1.62,1.64,1.9.13.13.32.17.47.07,2.17-1.52,5.21-3.79,7.97-5.89.22-.17.63-.58.78-.84.47-.8,1.08-1.96,1.43-2.69.23-.49.38-.64.94-.99.56-.35,2.22-1.4,2.22-1.4,0,0-1.25,5.12-2.14,6.9-.31.61-.6,1.04-.83,1.28-2.16,2.25-6.07,6.62-8.02,9.02-.65.8-.43,1.81.1,2.59,1.8,2.67,5.53,7.26,7.81,9.66.7.74,1.02,1.05,1.66,1.41.94.53,1.6.75,1.6.75,0,0,1.87-8.98,2.67-11.77.27-.95.86-1.7,2.05-2,9.61-2.38,30.35-5.83,30.35-5.83-2.18-2.61-9.48-10.12-11.68-12.01-.66-.57-1.28-.86-2.15-.96-2.68-.31-11.47-.95-11.47-.95,0,0,.76-.84,1.33-1.42.52-.53.83-.74,1.53-.98,10.77-3.73,25.13-9.16,33.53-12.66,1.82-.76,2.7-1.3,4.15-2.8.63-.65,1.91-2.08,2.64-2.96.15-.18.23-.31.27-.54.05-.26.11-.74.11-.74,0,0-3.59,2.69-5,3.68-1.3.91-2.14,1.33-3.68,1.72-2.96.77-8.51,2.09-11.82,2.82-.9.2-1.34.21-2.15-.09-.53-.19-1.54-.59-2.14-.87-.65-.3-.95-.35-1.65-.19-2.93.66-10.93,2.63-10.93,2.63,0,0,3.68-3.28,3.96-3.5.35-.27.51-.36,1.1-.59,2.77-1.11,6.19-2.34,9.08-3.52.66-.27.94-.59,1-1.24.18-2.22.81-6.23,1.2-8.34.11-.6.3-.93.78-1.31,1.68-1.33,7.9-6.1,9.39-7.19.1-.09.19-.18.28-.27l1.68-2.07c-4.43,2.57-12.33,7.26-16.41,9.83-1.75,1.11-2.61,1.69-4.33,3.06-.19.15-.36.33-.51.52-1.08,1.35-5.45,7.01-6.99,9.09Z"/>
            </g>
            <g>
              <path class="cls-1" d="M145.67,112.01v-25.25c10.73-.95,21.47-1.75,32.22-2.41v4.13c-9.37.57-18.73,1.26-28.09,2.05v6.27c8.28-.7,16.57-1.32,24.86-1.85v4.13c-8.29.53-16.58,1.15-24.86,1.85v6.59c9.36-.8,18.72-1.48,28.09-2.05v4.13c-10.75.66-21.49,1.46-32.22,2.41Z"/>
              <path class="cls-1" d="M101.82,116.72v-25.25c8.49-1.07,16.99-2.05,25.5-2.94,1.47-.15,2.67-.1,3.67.15,1.08.28,1.94.75,2.58,1.39.63.65,1.06,1.45,1.3,2.39.19.79.29,1.65.29,2.56v2.95c0,.92-.1,1.79-.29,2.6-.23.98-.68,1.86-1.31,2.62-.64.76-1.51,1.39-2.59,1.86-.99.43-2.18.72-3.64.87-7.13.74-14.26,1.55-21.38,2.43v7.85c-1.37.17-2.74.34-4.11.51ZM105.93,104.22c7.56-.93,15.12-1.78,22.7-2.56,1.3-.13,2.35-1.3,2.35-2.6v-4.43c0-1.3-1.06-2.25-2.35-2.12-7.57.78-15.14,1.64-22.7,2.56v9.14Z"/>
              <path class="cls-1" d="M330.39,110.13c-1.6-.11-2.89-.3-3.95-.58-1.21-.32-2.21-.81-2.97-1.44-.84-.7-1.42-1.59-1.74-2.63-.26-.85-.38-1.82-.38-2.94,0-3.75,0-7.5,0-11.25,0-1.13.12-2.07.38-2.9.31-1,.9-1.82,1.74-2.41.76-.54,1.76-.9,2.97-1.06,1.06-.14,2.35-.16,3.95-.05,5.59.38,11.18.8,16.77,1.26,1.6.13,2.89.34,3.95.65,1.21.35,2.21.85,2.97,1.51.84.72,1.42,1.63,1.73,2.68.26.86.38,1.82.38,2.95,0,3.75,0,7.5,0,11.25,0,1.13-.12,2.07-.38,2.88-.31,1-.89,1.79-1.74,2.37-.76.52-1.75.85-2.97.99-1.07.12-2.36.11-3.95-.02-5.59-.46-11.18-.88-16.77-1.26ZM327.88,88.85c-1.3-.09-2.36.9-2.36,2.2,0,4.09,0,8.18,0,12.26,0,1.3,1.06,2.42,2.36,2.51.69.05,1.39.09,2.08.14.15.01.31.03.47.04,5.57.38,11.13.8,16.69,1.26.11,0,.21.01.32.02.74.06,1.49.12,2.23.19,1.3.11,2.36-.86,2.36-2.16,0-4.09,0-8.18,0-12.26,0-1.3-1.06-2.45-2.36-2.56-7.26-.61-14.53-1.16-21.79-1.64Z"/>
              <path class="cls-1" d="M379.32,114.49v-21.12c-4.93-.54-9.85-1.05-14.78-1.53v-4.13c11.24,1.09,22.46,2.35,33.67,3.76v4.13c-4.92-.62-9.84-1.21-14.76-1.77v21.12c-1.37-.16-2.75-.31-4.12-.46Z"/>
              <path class="cls-1" d="M278.34,107.73v-25.25c10.76.26,21.52.66,32.27,1.21,0,1.38,0,2.75,0,4.13-9.37-.48-18.75-.85-28.13-1.11v6.27c8.3.23,16.6.54,24.9.95,0,1.38,0,2.75,0,4.13-8.3-.4-16.6-.72-24.9-.95v6.59c9.38.26,18.76.63,28.13,1.11,0,1.38,0,2.75,0,4.13-10.75-.55-21.51-.96-32.27-1.21Z"/>
              <path class="cls-1" d="M242.6,107.42c-1.6.01-2.89-.08-3.96-.28-1.21-.23-2.21-.64-2.98-1.22-.84-.64-1.43-1.48-1.74-2.5-.26-.84-.38-1.79-.38-2.91,0-3.72,0-7.44,0-11.16,0-2.41.63-4.23,1.87-5.41,1.24-1.17,3.27-1.74,6.39-1.76,7.97-.06,15.94-.03,23.91.08v4.13c-8.54-.11-17.08-.13-25.62-.06-1.3.01-2.36,1.08-2.36,2.38,0,3.92,0,7.84,0,11.76,0,.17,0,.34,0,.52,0,1.3,1.06,2.35,2.36,2.33.69,0,1.37-.01,2.06-.02.16,0,.32,0,.49,0,6.92-.04,13.84-.03,20.77.05v-6.59c-4.49-.05-8.97-.08-13.46-.08.01-1.38.02-2.75.03-4.13,5.86,0,11.71.04,17.57.13v14.85c-8.31-.12-16.63-.16-24.95-.11Z"/>
              <path class="cls-1" d="M197.72,108.52c-1.6.07-2.89.03-3.96-.13-1.21-.18-2.22-.56-2.97-1.11-.84-.61-1.42-1.42-1.74-2.43-.26-.83-.38-1.77-.38-2.9v-18.19c1.38-.07,2.76-.14,4.13-.21,0,6.24,0,12.48,0,18.71,0,1.3,1.06,2.31,2.36,2.25,7.03-.33,14.06-.59,21.09-.79,1.3-.04,2.36-1.12,2.36-2.42,0-6.24,0-12.48,0-18.71,1.38-.04,2.76-.07,4.14-.1v18.19c0,1.12-.12,2.08-.38,2.93-.31,1.03-.9,1.89-1.74,2.56-.76.61-1.76,1.06-2.98,1.33-1.07.24-2.36.38-3.96.43-5.33.16-10.65.36-15.98.6Z"/>
            </g>
            <path class="cls-1" d="M430.58,64.02c-61.52-10.6-122.13-15.58-180.52-15.58s-119.01,4.98-180.52,15.58c-.92,24.64-1.96,62.71-.21,95.02,3.92,72.03,19.79,127.95,49.97,175.97,30.08,47.87,76.67,89.04,130.76,113.48,54.1-24.45,100.68-65.61,130.76-113.48,30.17-48.02,46.05-103.93,49.97-175.97,1.76-32.31.71-70.39-.21-95.02ZM423.85,158.67c-3.85,70.81-19.39,125.67-48.91,172.65-29.52,46.97-73.78,85.77-124.89,109.54-51.11-23.77-95.37-62.57-124.89-109.54-29.52-46.98-45.06-101.84-48.91-172.65-1.26-23.13-1.26-52.21,0-88.75,57.79-9.65,116.23-14.54,173.79-14.54s116.01,4.89,173.79,14.54c1.27,36.54,1.27,65.62,0,88.75Z"/>
          </g>
        </g>
      </g>
    </g>
  </g>
</svg>