<?xml version="1.0" encoding="UTF-8"?>
<svg id="Capa_1" data-name="Capa 1" xmlns="http://www.w3.org/2000/svg" viewBox="0 0 513.27 499.01">
  <path d="M230.1,68.36l-.2,262.33h35.4l.27-118.49h39.42c3.49,21.64,3.9,110.97,3.9,117.96v.61h36.15c1.13-66.65.52-190.67-36.76-262.4h-78.19ZM265.21,181.73v-83.43s16.68,0,18.59,0h.43c7.06,14.73,11.69,35.98,14.55,51.8,3.07,17.15,4.65,31.62,4.65,31.62h-38.23ZM172.23,330.8l39.23-.04V68.36s-38.87.1-38.87.1l-.36,262.34ZM82.79,330.55l38.84.26.32-118.82h28.5v-30.49h-28.5v-82.93h36.79v-30.46h-75.92l-.03,262.45ZM335.34,68.36v30.3h28.04l.1,232.1h38.84l-.1-232.1h28.42v-30.57l-95.3.26Z"/>
  <g>
    <path d="M90.32,428.38h-7.69v-61.67h8.83c18.98,0,24.86,6.54,24.86,17.83,0,13-9.89,17.99-21.59,17.99h-4.42v25.84ZM90.32,395.66h2.45c7.85,0,16.36-1.47,16.36-11.29s-9.16-10.79-16.77-10.79h-2.04v22.08Z"/>
    <path d="M176.58,421.34h18.73v7.03h-26.42v-61.67h7.69v54.63Z"/>
    <path d="M247.88,428.38h-8.26l29.44-64.28,29.44,64.28h-8.26l-21.18-47.44-21.18,47.44Z"/>
    <path d="M348.7,363.77l46.29,48.5v-45.56h7.69v64.2l-46.29-48.5v45.96h-7.69v-64.61Z"/>
  </g>
</svg>