<?xml version="1.0" encoding="UTF-8"?>
<svg id="Capa_1" data-name="Capa 1" xmlns="http://www.w3.org/2000/svg" viewBox="0 0 1080 356.53">
  <defs>
    <style>
      .cls-1 {
        fill: #fff;
      }
    </style>
  </defs>
  <g>
    <g>
      <path d="M653.57,159.25c-13.3,0-20.07-2.42-20.07-15.35v-24.18c0-12.09,6.04-15.96,18.25-15.96h52.59v8.95h-56.21c-2.54,0-5.08,2.18-5.08,4.71v27.8c0,2.54,2.54,5.08,5.08,5.08h50.41v-14.99h-29.25v-8.95h38.8v32.88h-54.52Z"/>
      <path d="M400.55,103.76h-56.45v55.49h9.79v-17.17h46.66c11.24,0,17.53-4.11,17.53-15.72v-6.29c0-11.36-6.29-16.32-17.53-16.32ZM408.53,128.67c0,2.42-2.54,4.47-5.08,4.47h-49.56v-20.43h49.56c2.54,0,5.08,2.18,5.08,4.71v11.24Z"/>
      <polygon points="510.43 112.71 510.43 103.76 439.85 103.76 439.85 159.25 510.43 159.25 510.43 150.3 449.4 150.3 449.4 135.31 503.68 135.31 503.68 126.37 449.4 126.37 449.4 112.71 510.43 112.71"/>
      <polygon points="802.54 112.71 802.54 103.76 731.97 103.76 731.97 159.25 802.54 159.25 802.54 150.3 741.52 150.3 741.52 135.31 795.8 135.31 795.8 126.37 741.52 126.37 741.52 112.71 802.54 112.71"/>
      <path d="M554.45,159.25c-12.45,0-20.07-2.78-20.07-15.35v-40.14h9.55v41.83c0,2.54,2.18,4.71,5.08,4.71h45.94c2.9,0,4.84-2.18,4.84-4.71v-41.83h9.79v40.14c0,12.69-6.65,15.35-20.07,15.35h-35.06Z"/>
      <path d="M841.13,112.71c-2.9,0-5.08,2.18-5.08,5.08v27.44c0,2.54,2.18,5.08,5.08,5.08h47.51c2.54,0,5.08-2.54,5.08-5.08v-27.44c0-2.9-2.54-5.08-5.08-5.08h-47.51ZM846.57,159.25c-13.3,0-20.07-2.18-20.07-15.35v-24.78c0-12.45,6.17-15.35,20.07-15.35h36.63c12.09,0,20.07,2.66,20.07,15.35v24.78c0,12.45-6.89,15.35-20.07,15.35h-36.63Z"/>
      <polygon points="995.35 103.76 921.01 103.76 921.01 112.71 953.4 112.71 953.4 159.25 963.2 159.25 963.2 112.71 995.35 112.71 995.35 103.76"/>
    </g>
    <g>
      <path d="M200.86,297.06c-30.33-14.11-56.68-37.22-74.19-65.08-17.5-27.85-26.71-60.25-28.98-101.96-.73-13.49-.73-30.36,0-51.56l.15-4.47,4.41-.74c33.55-5.6,67.5-8.44,100.91-8.44s67.36,2.84,100.91,8.44l4.41.74.15,4.47c.73,21.2.73,38.07,0,51.56-2.27,41.71-11.48,74.11-28.98,101.96-17.51,27.86-43.86,50.98-74.19,65.08l-2.31,1.07-2.31-1.07Z"/>
      <g>
        <g>
          <path class="cls-1" d="M156.26,205.93c-.65.12-1-.22-1.09-.66-.26-1.18-.92-5.24-1.13-6.43-.11-.66.09-1.02.68-1.21,2.89-.94,7.76-2.58,11.68-3.96,1.01-.36,1.32-.76,1.89-1.66,1.64-2.61,5.67-9.72,7.57-13.41.27-.52.25-1.15-.05-1.65l-.87-1.44c-.3-.5-.99-1.02-1.55-1.16-3.98-1.02-9.25-2.31-11.74-2.91-.55-.13-1.13-.11-1.67.06l-.46.15c3.82,1.3,7.07,2.46,11.18,4.03.36.14.74.54.85.91l.38,1.24c.15.51.11,1.05-.13,1.52-1.75,3.43-4.78,7.97-7.2,10.89-.36.44-.83.77-1.36.97-2.34.88-6.6,2.28-8.45,2.76-.37.09-.55.05-.86-.16-1.35-.94-4.13-3.56-4.13-3.56,0,0-.23,2.84-.25,4.11,0,.14.03.28.08.41.48,1.11,1.31,3.24,1.66,4.32.09.28.16.53.24.81.47,1.87,1.76,7.36,1.76,7.36.19.83.66,1.12,1.39.96.95-.21,3.97-1.06,5.21-1.47.19-.06.36-.17.51-.3.8-.73,2.14-1.97,2.14-1.97,0,0-4.55,1.11-6.26,1.44Z"/>
          <path class="cls-1" d="M163.12,189.06c1.55-1.87,3.59-4.86,5.3-7.68l-12.67,10.44c2.08-.63,4.89-1.59,6.58-2.22.31-.12.58-.3.78-.55Z"/>
          <path class="cls-1" d="M163.42,146.99l-2.26.19c-.18.02-.32.16-.34.34l-.21,2.69c-.01.14.12.25.25.22l2.29-.51c.27-.06.61-.32.72-.57.28-.64.36-1.39.07-2.06-.09-.2-.29-.32-.51-.31Z"/>
          <path class="cls-1" d="M141.36,180.63l3.44,4.03,1.01-6.97c-1.99.3-3.82,1.58-4.45,2.94Z"/>
          <path class="cls-1" d="M253.46,179.9c-1.4-2.49-8.38-11.94-17.12-21.05-.32-.33-.7-.6-1.12-.78l-1.42-.62s2.54,11.11,3.68,17.18c.14.77.52,1.48,1.08,2.04,3.9,3.87,6.48,6.88,8.63,10.06.94,1.38,1.48,2.99,1.59,4.66.59,8.82.31,20.95-.68,27.71-.2,1.37-.53,1.85-1.42,2.58-8.45,6.84-22.43,18.87-28.43,24.81-.63.63-.86.91-1.25,1.49-.79,1.19-1.63,2.95-1.63,2.95,0,0-1.42-4.37-1.74-6.75-.15-1.11-.16-1.42,0-2.55.72-5.1,4.29-16.86,4.87-18.63.05-.15.08-.31.08-.47v-1.1c-1.29,2.7-7.93,17.62-9.33,22.75-.3,1.08-.25,1.51.03,2.31.86,2.47,3.37,8.6,4.52,11.11,0,0,2.73-5.11,4.31-7.68.44-.72.98-1.37,1.6-1.94,4.72-4.37,21.68-18.53,29.61-24.49,1.06-.8,1.39-1.37,1.68-2.47,3.21-12.24,4.55-26.32,2.98-39.61-.06-.55-.25-1.02-.52-1.5Z"/>
          <path class="cls-1" d="M218.72,144.08c.32-.56.45-1.22.34-1.86-.26-1.54-.66-3.35-.99-4.72-.06-.26-.23-.47-.47-.58l-2.39-1.14c-.31-.15-.67-.2-1.01-.14-5.77,1.02-11.84,2.22-16.43,3.26-.38.09-.7.32-.89.66l-1.43,2.47c-.11.19,0,.43.22.47,1.2.23,3.66.67,4.5.79.52.08.69.06,1.12-.11,2.91-1.21,7.66-3.05,11.2-4.34.28-.1.58-.11.87-.01l1.62.52c.24.08.43.24.56.45.44.78.91,1.64,1.19,2.21.2.4.09.94-.25,1.43-1.2,1.74-3.25,4.47-4.66,6.18-.31.38-.41.88-.28,1.35.83,2.86,2.63,8.74,3.59,11.55.12.35.29.61.56.86l1.35,1.23s-2.15-9.95-2.66-12.8c-.08-.44-.05-.9.2-1.27,1.13-1.66,3.17-4.75,4.16-6.47Z"/>
          <path class="cls-1" d="M270.27,152.26c-.17-.75-.41-1.07-1.04-1.54-6.46-4.8-18.07-11.62-24.98-14.53-.89-.37-1.88-.4-2.79-.06-3.29,1.21-8.56,3.42-14.04,5.99,0,0,2.41.18,3.56.31.59.07.82.06,1.39-.1,1.68-.46,4.66-1.2,7.01-1.73,1.15-.26,2.34,0,3.29.7,3.22,2.4,8.39,6.56,11.7,9.34.58.48,1.23.87,1.93,1.15,5.05,2.02,7.26,3.03,8.39,3.61.79.41,1.36,1.14,1.59,2,1.31,5.06,2.19,12.82,2.64,18.42.08,1.04-.05,2.08-.4,3.06-1.42,4.02-4.95,10.69-6.93,13.88-.18.29-.36.51-.71.8-.7.6-1.93,1.6-2.84,2.3-.18.14-.28.34-.28.57-.02,2.17-.44,6.36-.44,6.36,4.84-6.07,9.45-13.94,13.54-22.31.34-.69.47-1.07.53-1.72.96-8.97.38-19.63-1.14-26.52Z"/>
          <path class="cls-1" d="M205.95,260.87c-1.14-2.56-7.07-16.59-8.67-21.96-.57-1.9-.64-2.41-.42-4.55,1.35-13.19,6.09-34.19,6.83-37.07.16-.61.14-.77.03-1.39-.19-1.09-.83-4.86-.83-4.86-2.14,4.97-9.78,25.48-12.6,37.55-.53,2.27-.44,2.88.04,4.12,4.05,10.51,14.38,29.48,16.28,32.35l-.43-3.31c-.04-.31-.12-.6-.24-.89Z"/>
          <path class="cls-1" d="M196.75,261.69s-2.25-1.46-2.94-1.92c-.72-.48-.97-.68-1.3-.99-4.7-4.25-21.17-24.5-26.11-33.3-.83-1.48-1.07-2.17-.99-3.66.09-1.7.42-4.97.76-6.89.21-1.2.48-1.99,1.5-2.91,2.8-2.54,7.32-7.09,9.69-9.49,1.03-1.05,1.55-1.72,2.1-2.75,2.17-4.06,8.79-18.45,11.01-24.36.39-1.05.42-1.34.27-2.43-.43-3.1-2.9-11.1-2.9-11.1l-.21,2.68c-.01.18,0,.37.02.55.2,1.16.95,5.75.92,8.1,0,.81-.05,1.11-.49,1.97-3.33,6.54-16.31,23.99-24.51,33.44-.92,1.06-1.19,1.77-1.44,2.97-.42,2-.9,6.55-1.21,10.17-.17,1.94-.04,2.61,1.2,4.66,4.95,8.23,21.8,27.94,27.29,32.5.36.3.75.56,1.17.79,1.93,1.04,7.22,3.66,7.22,3.66l-.82-1.43c-.06-.1-.13-.18-.22-.24Z"/>
          <path class="cls-1" d="M172.28,144.29l10.47-3.27c.62-.19,1.14-.61,1.45-1.17l5.58-9.61c.13-.23-.03-.51-.3-.51l-4.77.06c-.41,0-.94.09-1.33.22-4.15,1.38-10.07,4.01-13.4,5.77-.38.2-.73.52-.99.85l-5.04,6.2c-.17.2-.38.36-.62.47l-3.26,1.39c-.16.07-.28.19-.35.34l-.15.33s6.9-.22,9.22-.39c1.27-.1,2.29-.29,3.51-.66Z"/>
          <path class="cls-1" d="M191.45,121.63c13.18-.99,28.33-.71,32-.62.55.01,1.09.11,1.61.28l2.69.9c-6.61.35-22.6,1.77-29.06,2.89l2.28.36c.16.03.32.03.49.02,4.78-.3,14.15-.6,18.26-.66,1-.01,1.53.08,2.55.47,2.39.91,7.2,3.09,9.18,4.1,1.04.53,1.76.7,2.82.75,2.15.09,5.44.32,7.87.58.66.07,1.3.26,1.89.56,5,2.52,10.97,6.09,15.05,8.84.24.16.5.27.79.33l2.02.4s-6.48-6.62-9.03-8.88c-.37-.32-.77-.61-1.2-.85-9.65-5.52-18.33-10.02-23.22-12.08-.78-.33-1.61-.53-2.46-.59-14.93-1.13-30.56-.85-42.11.16-.82.07-1.48.47-1.87,1.04-.45.66-1.19,1.84-1.86,2.93-.33.53-.73,1.01-1.2,1.42-2.08,1.82-5.58,4.77-7.8,6.44-.19.14-.29.22-.44.32-.92.63-3.99,2.65-4.54,3.02-.21.14-.26.18-.41.38-.18.23-1.1,1.41-1.1,1.41,9.19-5.17,20.91-11.65,24.92-13.42.6-.26,1.23-.42,1.89-.47Z"/>
          <path class="cls-1" d="M148.53,150.8c-.11.15-.26.28-.41.39-8.18,5.84-12.77,9.56-14.58,11.08-.74.72-1.44,1.43-2.09,2.1-.58.6-.71.82-.75,1.3-.03.4-.06.94-.06,1.25,0,.17.04.31.14.45.12.17.76.91.91,1.06.07.07.18.1.26.04,1.21-.85,2.91-2.11,4.45-3.29.12-.09.35-.32.43-.47.26-.45.6-1.09.8-1.5.13-.27.21-.36.53-.55.31-.2,1.24-.78,1.24-.78,0,0-.7,2.86-1.2,3.85-.17.34-.33.58-.46.71-1.21,1.26-3.39,3.7-4.48,5.04-.36.45-.24,1.01.05,1.45,1,1.49,3.09,4.06,4.36,5.4.39.41.57.58.93.79.52.3.89.42.89.42,0,0,1.05-5.02,1.49-6.58.15-.53.48-.95,1.14-1.12,5.37-1.33,16.95-3.26,16.95-3.26-1.22-1.46-5.29-5.65-6.53-6.71-.37-.32-.72-.48-1.2-.53-1.5-.17-6.41-.53-6.41-.53,0,0,.43-.47.74-.79.29-.3.46-.41.86-.55,6.02-2.08,14.04-5.12,18.73-7.08,1.02-.43,1.51-.72,2.32-1.56.35-.37,1.07-1.16,1.48-1.65.08-.1.13-.17.15-.3.03-.15.06-.41.06-.41,0,0-2,1.5-2.79,2.05-.73.51-1.2.74-2.06.96-1.65.43-4.76,1.17-6.6,1.58-.5.11-.75.12-1.2-.05-.3-.11-.86-.33-1.2-.49-.36-.17-.53-.19-.92-.11-1.64.37-6.11,1.47-6.11,1.47,0,0,2.06-1.83,2.21-1.95.19-.15.29-.2.62-.33,1.55-.62,3.46-1.31,5.07-1.96.37-.15.53-.33.56-.69.1-1.24.45-3.48.67-4.66.06-.33.17-.52.43-.73.94-.75,4.42-3.41,5.24-4.02l.16-.15.94-1.16c-2.47,1.44-6.89,4.06-9.17,5.49-.98.62-1.46.95-2.42,1.71-.11.08-.2.18-.29.29-.6.75-3.04,3.92-3.9,5.08Z"/>
        </g>
        <path class="cls-1" d="M304.02,78.34c-34.37-5.92-68.23-8.7-100.85-8.7s-66.49,2.78-100.85,8.7c-.51,13.76-1.1,35.03-.12,53.09,2.19,40.24,11.06,71.48,27.92,98.31,16.81,26.75,42.83,49.74,73.05,63.4,30.22-13.66,56.25-36.66,73.05-63.4,16.86-26.83,25.73-58.06,27.92-98.31.98-18.05.4-39.32-.12-53.09ZM300.27,131.22c-2.15,39.56-10.83,70.21-27.33,96.46-16.49,26.24-41.22,47.92-69.77,61.2-28.55-13.28-53.28-34.96-69.77-61.2-16.49-26.25-25.18-56.89-27.33-96.46-.7-12.92-.7-29.17,0-49.58,32.28-5.39,64.93-8.12,97.09-8.12s64.81,2.73,97.09,8.12c.71,20.42.71,36.66,0,49.58Z"/>
        <g>
          <path class="cls-1" d="M199.05,102.59c-3.39.02-5.11-.56-5.11-3.85v-6.15c0-3.07,1.54-4.08,4.65-4.11,4.47-.03,8.93-.02,13.4.04v2.27c-4.77-.06-9.55-.08-14.32-.04-.65,0-1.29.57-1.29,1.21v7.07c0,.65.65,1.28,1.29,1.28,4.28-.04,8.56-.03,12.84.02v-3.81c-2.48-.03-4.97-.04-7.45-.04v-2.27c3.3,0,6.59.02,9.89.07v8.36c-4.63-.07-9.26-.09-13.89-.06Z"/>
          <path class="cls-1" d="M134.69,92.02c-4.77.5-9.55,1.05-14.31,1.65,0,4.7,0,9.41,0,14.11.83-.1,1.65-.21,2.48-.31v-4.36c3.94-.48,7.88-.93,11.83-1.34,2.85-.3,4.45-1.49,4.45-4.44v-1.6c0-2.89-1.6-4-4.45-3.7ZM136.71,98.15c0,.61-.64,1.2-1.29,1.27-4.19.43-8.38.9-12.57,1.42v-5.19c4.19-.51,8.37-.99,12.57-1.42.64-.07,1.29.42,1.29,1.07v2.86Z"/>
          <path class="cls-1" d="M162.61,91.99v-2.27c-5.98.37-11.97.82-17.94,1.35v14.11c5.98-.53,11.96-.98,17.94-1.35v-2.27c-5.17.32-10.35.7-15.52,1.14v-3.81c4.6-.39,9.2-.74,13.8-1.03,0-.76,0-1.52,0-2.27-4.6.3-9.2.64-13.8,1.03v-3.47c5.17-.44,10.34-.82,15.52-1.14Z"/>
          <path class="cls-1" d="M236.99,91.61v-2.27c-5.99-.31-11.98-.53-17.97-.68v14.11c5.99.14,11.98.37,17.97.68v-2.27c-5.18-.27-10.36-.47-15.54-.61v-3.81c4.61.13,9.22.3,13.82.53v-2.27c-4.61-.22-9.21-.4-13.82-.53v-3.47c5.18.14,10.36.35,15.54.61Z"/>
          <path class="cls-1" d="M173.81,103.23c-3.17.14-5.11-.46-5.11-3.66,0-3.4,0-6.8,0-10.2.81-.04,1.62-.08,2.43-.12v10.64c0,.65.55,1.17,1.29,1.14,3.9-.18,7.8-.33,11.7-.44.74-.02,1.23-.59,1.23-1.23v-10.64c.83-.02,1.66-.04,2.49-.06,0,3.4,0,6.8,0,10.2,0,3.23-1.69,3.94-5.11,4.04-2.98.09-5.95.2-8.93.34Z"/>
          <path class="cls-1" d="M246.81,92.18c-.74-.05-1.29.47-1.29,1.21v6.98c0,.65.55,1.33,1.29,1.38,4.03.27,8.05.57,12.08.91.65.05,1.29-.54,1.29-1.18v-6.98c0-.74-.64-1.35-1.29-1.4-4.02-.34-8.05-.64-12.08-.91ZM248.2,104.11c-3.38-.23-5.1-.88-5.1-4.23v-6.3c0-3.16,1.57-3.81,5.1-3.57,3.11.21,6.21.45,9.31.7,3.07.25,5.1,1.12,5.1,4.34v6.3c0,3.17-1.75,3.74-5.1,3.46-3.1-.26-6.21-.49-9.31-.7Z"/>
          <path class="cls-1" d="M285.96,93.67c-6.28-.79-12.56-1.5-18.85-2.11v2.27c2.74.27,5.48.55,8.22.85v11.83c.83.09,1.66.18,2.48.28v-11.83c2.72.31,5.43.64,8.15.98v-2.27Z"/>
        </g>
      </g>
    </g>
  </g>
  <g>
    <path d="M359.39,241.01h-18.15v-60.9h35.16c9.46,0,16.29,1.78,20.46,5.35,4.18,3.57,6.26,9.4,6.26,17.5s-2.09,14.01-6.26,17.58c-4.18,3.57-11,5.35-20.46,5.35h-17.01v15.11ZM376.25,194.54h-16.86v16.93h16.86c3.24,0,5.47-.63,6.68-1.9,1.21-1.26,1.82-3.44,1.82-6.53s-.61-5.34-1.82-6.61c-1.22-1.26-3.44-1.9-6.68-1.9Z"/>
    <path d="M456.74,241.01h-44.27v-60.9h18.15v45.71h26.12v15.19Z"/>
    <path d="M482.63,241.01h-19.36l21.94-60.9h28.85l21.87,60.9h-19.36l-4.1-12h-25.74l-4.1,12ZM491.89,213.83h15.41l-6.38-18.83h-2.66l-6.38,18.83Z"/>
    <path d="M562.89,241.01h-18.15v-60.9h22.17l25.21,37.21v-37.21h18.15v60.9h-22.63l-24.75-36.07v36.07Z"/>
  </g>
</svg>