<?xml version="1.0" encoding="UTF-8"?>
<svg id="Capa_1" xmlns="http://www.w3.org/2000/svg" version="1.1" viewBox="0 0 550 427.78">
  <!-- Generator: Adobe Illustrator 29.0.0, SVG Export Plug-In . SVG Version: 2.1.0 Build 186)  -->
  <defs>
    <style>
      .st0 {
        fill: #fff;
      }
    </style>
  </defs>
  <g>
    <path d="M269.12,298.1c-10.23,0-15.44-1.86-15.44-11.81v-18.6c0-9.3,4.65-12.27,14.04-12.27h40.45v6.88h-43.24c-1.95,0-3.91,1.67-3.91,3.63v21.39c0,1.95,1.95,3.91,3.91,3.91h38.77v-11.53h-22.5v-6.88h29.85v25.29h-41.94Z"/>
    <path d="M74.51,255.42H31.08v42.68h7.53v-13.2h35.89c8.65,0,13.48-3.16,13.48-12.09v-4.84c0-8.74-4.84-12.55-13.48-12.55ZM80.64,274.57c0,1.86-1.95,3.44-3.91,3.44h-38.12v-15.71h38.12c1.95,0,3.91,1.67,3.91,3.63v8.65Z"/>
    <polygon points="159.02 262.3 159.02 255.42 104.74 255.42 104.74 298.1 159.02 298.1 159.02 291.22 112.08 291.22 112.08 279.69 153.83 279.69 153.83 272.81 112.08 272.81 112.08 262.3 159.02 262.3"/>
    <polygon points="383.7 262.3 383.7 255.42 329.42 255.42 329.42 298.1 383.7 298.1 383.7 291.22 336.77 291.22 336.77 279.69 378.51 279.69 378.51 272.81 336.77 272.81 336.77 262.3 383.7 262.3"/>
    <path d="M192.88,298.1c-9.58,0-15.44-2.14-15.44-11.81v-30.87h7.35v32.17c0,1.95,1.67,3.63,3.91,3.63h35.33c2.23,0,3.72-1.67,3.72-3.63v-32.17h7.53v30.87c0,9.76-5.11,11.81-15.44,11.81h-26.96Z"/>
    <path d="M413.39,262.3c-2.23,0-3.91,1.67-3.91,3.91v21.11c0,1.95,1.67,3.91,3.91,3.91h36.54c1.95,0,3.91-1.95,3.91-3.91v-21.11c0-2.23-1.95-3.91-3.91-3.91h-36.54ZM417.57,298.1c-10.23,0-15.44-1.67-15.44-11.81v-19.06c0-9.58,4.74-11.81,15.44-11.81h28.17c9.3,0,15.44,2.05,15.44,11.81v19.06c0,9.58-5.3,11.81-15.44,11.81h-28.17Z"/>
    <polygon points="532 255.42 474.82 255.42 474.82 262.3 499.74 262.3 499.74 298.1 507.27 298.1 507.27 262.3 532 262.3 532 255.42"/>
  </g>
  <g>
    <path d="M279.79,230.53c-23.1-10.74-43.16-28.34-56.49-49.56-13.33-21.21-20.34-45.88-22.06-77.64-.56-10.27-.56-23.11,0-39.26l.12-3.4,3.36-.56c25.54-4.26,51.4-6.43,76.84-6.43s51.29,2.16,76.84,6.43l3.36.56.12,3.4c.56,16.14.56,28.99,0,39.26-1.73,31.76-8.74,56.43-22.07,77.64-13.33,21.22-33.4,38.82-56.49,49.56l-1.76.82-1.76-.82Z"/>
    <g>
      <g>
        <path class="st0" d="M245.83,161.14c-.5.09-.76-.17-.83-.5-.2-.9-.7-3.99-.86-4.9-.09-.5.07-.77.52-.92,2.2-.71,5.91-1.97,8.89-3.02.77-.27,1.01-.58,1.44-1.26,1.25-1.99,4.31-7.4,5.76-10.21.21-.4.19-.87-.04-1.26l-.66-1.1c-.23-.38-.76-.77-1.18-.88-3.03-.78-7.05-1.76-8.94-2.21-.42-.1-.86-.08-1.27.05l-.35.11c2.91.99,5.38,1.88,8.52,3.07.27.1.56.41.65.69l.29.95c.12.38.08.8-.1,1.16-1.33,2.61-3.64,6.07-5.48,8.29-.28.33-.63.59-1.04.74-1.78.67-5.02,1.74-6.44,2.1-.28.07-.42.04-.65-.12-1.03-.72-3.15-2.71-3.15-2.71,0,0-.18,2.16-.19,3.13,0,.11.02.21.06.31.36.85,1,2.47,1.27,3.29.07.21.12.4.18.62.36,1.42,1.34,5.61,1.34,5.61.14.63.5.85,1.06.73.72-.16,3.03-.8,3.97-1.12.15-.05.27-.13.39-.23.61-.56,1.63-1.5,1.63-1.5,0,0-3.46.85-4.77,1.09Z"/>
        <path class="st0" d="M251.05,148.29c1.18-1.42,2.73-3.7,4.04-5.85l-9.64,7.95c1.58-.48,3.73-1.21,5.01-1.69.23-.09.44-.23.59-.42Z"/>
        <path class="st0" d="M251.28,116.26l-1.72.15c-.14.01-.25.12-.26.26l-.16,2.05c0,.11.09.19.19.17l1.74-.39c.21-.05.46-.24.55-.44.21-.49.27-1.06.05-1.57-.07-.15-.22-.25-.39-.23Z"/>
        <path class="st0" d="M234.48,141.87l2.62,3.07.77-5.31c-1.51.23-2.91,1.2-3.38,2.24Z"/>
        <path class="st0" d="M319.84,141.32c-1.07-1.9-6.38-9.09-13.03-16.03-.24-.25-.53-.45-.85-.59l-1.08-.47s1.93,8.46,2.8,13.09c.11.59.4,1.13.82,1.55,2.97,2.95,4.93,5.24,6.57,7.66.71,1.05,1.13,2.28,1.21,3.55.45,6.72.23,15.95-.51,21.1-.15,1.04-.4,1.41-1.09,1.96-6.44,5.21-17.08,14.37-21.65,18.89-.48.48-.66.69-.95,1.14-.6.91-1.24,2.25-1.24,2.25,0,0-1.08-3.33-1.33-5.14-.11-.85-.12-1.08,0-1.94.55-3.88,3.27-12.84,3.71-14.18.04-.12.06-.24.06-.36v-.84c-.98,2.05-6.04,13.42-7.1,17.33-.23.82-.19,1.15.03,1.76.65,1.88,2.56,6.55,3.44,8.46,0,0,2.08-3.89,3.28-5.85.34-.55.75-1.04,1.22-1.48,3.59-3.32,16.51-14.11,22.55-18.65.81-.61,1.06-1.04,1.28-1.88,2.44-9.32,3.47-20.04,2.27-30.16-.05-.42-.19-.78-.39-1.15Z"/>
        <path class="st0" d="M293.38,114.04c.25-.43.34-.93.26-1.41-.2-1.17-.51-2.55-.75-3.59-.05-.2-.18-.36-.36-.44l-1.82-.87c-.24-.11-.51-.15-.77-.11-4.39.78-9.01,1.69-12.51,2.48-.29.07-.53.25-.68.5l-1.09,1.88c-.08.15,0,.33.16.36.91.17,2.78.51,3.42.6.39.06.53.05.85-.09,2.21-.92,5.83-2.32,8.53-3.3.21-.08.44-.08.66-.01l1.24.4c.18.06.33.18.42.35.34.6.69,1.25.9,1.68.15.31.07.72-.19,1.09-.91,1.32-2.48,3.41-3.55,4.71-.24.29-.32.67-.21,1.03.63,2.18,2,6.66,2.73,8.8.09.26.22.46.43.65l1.03.94s-1.64-7.58-2.03-9.74c-.06-.34-.04-.68.16-.97.86-1.26,2.41-3.62,3.16-4.93Z"/>
        <path class="st0" d="M332.64,120.27c-.13-.57-.31-.82-.79-1.17-4.92-3.66-13.76-8.85-19.02-11.06-.68-.29-1.44-.3-2.13-.05-2.51.92-6.52,2.61-10.69,4.56,0,0,1.84.14,2.71.24.45.05.62.04,1.06-.08,1.28-.35,3.55-.91,5.34-1.32.87-.2,1.79,0,2.5.53,2.45,1.83,6.39,5,8.91,7.11.44.37.94.66,1.47.88,3.84,1.54,5.53,2.31,6.39,2.75.6.31,1.04.87,1.21,1.52,1,3.85,1.67,9.76,2.01,14.02.06.79-.04,1.58-.31,2.33-1.08,3.06-3.77,8.14-5.27,10.57-.13.22-.28.39-.54.61-.53.46-1.47,1.22-2.16,1.75-.13.1-.21.26-.21.43-.02,1.65-.33,4.85-.33,4.85,3.69-4.62,7.19-10.62,10.31-16.99.26-.52.35-.82.41-1.31.73-6.83.29-14.94-.87-20.19Z"/>
        <path class="st0" d="M283.66,202.98c-.87-1.95-5.38-12.63-6.6-16.72-.43-1.45-.49-1.84-.32-3.47,1.03-10.05,4.64-26.03,5.2-28.23.12-.46.1-.59.02-1.06-.15-.83-.63-3.7-.63-3.7-1.63,3.78-7.45,19.4-9.59,28.6-.4,1.73-.33,2.2.03,3.14,3.09,8,10.95,22.45,12.4,24.64l-.32-2.52c-.03-.23-.09-.46-.18-.67Z"/>
        <path class="st0" d="M276.65,203.6s-1.71-1.11-2.24-1.46c-.55-.36-.73-.52-.99-.75-3.58-3.24-16.12-18.66-19.88-25.36-.63-1.12-.82-1.65-.75-2.79.07-1.29.32-3.79.58-5.25.16-.91.37-1.51,1.14-2.22,2.13-1.94,5.58-5.4,7.38-7.23.79-.8,1.18-1.31,1.6-2.1,1.65-3.09,6.69-14.05,8.39-18.55.3-.8.32-1.02.2-1.85-.32-2.36-2.21-8.45-2.21-8.45l-.16,2.04c-.01.14,0,.28.02.42.15.88.72,4.38.7,6.17,0,.62-.04.85-.37,1.5-2.53,4.98-12.42,18.27-18.67,25.46-.7.81-.9,1.35-1.1,2.26-.32,1.52-.69,4.99-.92,7.74-.13,1.48-.03,1.99.91,3.55,3.77,6.27,16.6,21.27,20.78,24.75.28.23.57.43.89.6,1.47.79,5.5,2.79,5.5,2.79l-.62-1.09c-.04-.07-.1-.13-.17-.18Z"/>
        <path class="st0" d="M258.02,114.2l7.97-2.49c.47-.14.86-.46,1.1-.89l4.25-7.32c.1-.17-.03-.39-.23-.39l-3.63.05c-.31,0-.72.07-1.01.17-3.16,1.05-7.66,3.06-10.2,4.39-.29.15-.55.39-.76.64l-3.84,4.72c-.13.16-.29.28-.47.36l-2.49,1.05c-.12.05-.22.14-.27.26l-.12.25s5.25-.17,7.02-.3c.96-.07,1.74-.22,2.67-.5Z"/>
        <path class="st0" d="M272.62,96.95c10.04-.75,21.57-.54,24.37-.47.42.01.83.08,1.23.21l2.05.68c-5.04.27-17.21,1.35-22.13,2.2l1.74.27c.12.02.25.03.37.02,3.64-.23,10.78-.45,13.91-.5.76-.01,1.16.06,1.94.36,1.82.7,5.48,2.36,6.99,3.12.79.4,1.34.54,2.15.57,1.64.07,4.14.24,5.99.44.5.05.99.2,1.44.43,3.81,1.92,8.35,4.64,11.46,6.73.18.12.38.21.6.25l1.54.3s-4.93-5.04-6.88-6.76c-.28-.25-.59-.46-.91-.65-7.35-4.2-13.96-7.63-17.68-9.2-.6-.25-1.23-.4-1.87-.45-11.37-.86-23.27-.65-32.07.12-.63.06-1.13.36-1.43.79-.34.5-.91,1.4-1.42,2.23-.25.41-.56.77-.92,1.08-1.59,1.39-4.25,3.63-5.94,4.9-.15.11-.22.17-.33.24-.7.48-3.04,2.02-3.46,2.3-.16.1-.2.13-.32.29-.14.17-.84,1.07-.84,1.07,7-3.94,15.92-8.87,18.97-10.22.46-.2.94-.32,1.44-.36Z"/>
        <path class="st0" d="M239.94,119.16c-.09.12-.19.22-.31.3-6.23,4.45-9.72,7.28-11.1,8.44-.56.55-1.1,1.09-1.59,1.6-.44.46-.54.63-.57.99-.02.3-.05.71-.04.95,0,.13.03.24.11.35.09.13.58.69.7.81.05.05.14.07.2.03.92-.65,2.22-1.61,3.39-2.5.09-.07.27-.25.33-.36.2-.34.46-.83.61-1.15.1-.21.16-.27.4-.42.24-.15.95-.59.95-.59,0,0-.53,2.18-.91,2.93-.13.26-.25.44-.35.54-.92.96-2.58,2.82-3.41,3.84-.28.34-.18.77.04,1.1.76,1.13,2.35,3.09,3.32,4.11.3.31.43.44.71.6.4.23.68.32.68.32,0,0,.8-3.82,1.13-5.01.11-.4.37-.72.87-.85,4.09-1.01,12.91-2.48,12.91-2.48-.93-1.11-4.03-4.3-4.97-5.11-.28-.24-.55-.36-.92-.41-1.14-.13-4.88-.4-4.88-.4,0,0,.32-.36.56-.6.22-.23.35-.31.65-.42,4.58-1.59,10.69-3.9,14.26-5.39.78-.32,1.15-.55,1.76-1.19.27-.28.81-.89,1.12-1.26.06-.08.1-.13.11-.23.02-.11.05-.31.05-.31,0,0-1.53,1.14-2.13,1.56-.55.39-.91.56-1.56.73-1.26.33-3.62.89-5.03,1.2-.38.09-.57.09-.92-.04-.23-.08-.66-.25-.91-.37-.28-.13-.4-.15-.7-.08-1.25.28-4.65,1.12-4.65,1.12,0,0,1.57-1.4,1.68-1.49.15-.11.22-.15.47-.25,1.18-.47,2.63-1,3.86-1.5.28-.11.4-.25.42-.53.08-.95.35-2.65.51-3.55.05-.25.13-.39.33-.56.72-.57,3.36-2.6,3.99-3.06l.12-.12.71-.88c-1.88,1.09-5.25,3.09-6.98,4.18-.75.47-1.11.72-1.84,1.3-.08.06-.15.14-.22.22-.46.57-2.32,2.98-2.97,3.87Z"/>
      </g>
      <path class="st0" d="M358.34,63.98c-26.17-4.51-51.96-6.63-76.8-6.63s-50.63,2.12-76.8,6.63c-.39,10.48-.83,26.68-.09,40.42,1.67,30.64,8.42,54.43,21.26,74.86,12.8,20.37,32.61,37.88,55.63,48.28,23.01-10.4,42.83-27.91,55.63-48.28,12.84-20.43,19.59-44.21,21.26-74.86.75-13.75.3-29.94-.09-40.42ZM355.48,104.25c-1.64,30.12-8.25,53.46-20.81,73.45-12.56,19.98-31.39,36.49-53.13,46.6-21.74-10.11-40.57-26.62-53.13-46.6-12.56-19.99-19.17-43.32-20.81-73.45-.54-9.84-.53-22.21,0-37.76,24.58-4.1,49.45-6.19,73.93-6.19s49.35,2.08,73.93,6.19c.54,15.55.54,27.92,0,37.76Z"/>
      <g>
        <path class="st0" d="M278.41,82.44c-2.58.02-3.89-.43-3.89-2.93v-4.68c0-2.34,1.17-3.11,3.54-3.13,3.4-.02,6.8-.01,10.2.03v1.73c-3.63-.05-7.27-.06-10.9-.03-.49,0-.98.43-.98.92v5.38c0,.49.49.98.98.97,3.26-.03,6.52-.02,9.78.01v-2.9c-1.89-.02-3.78-.03-5.68-.03v-1.73c2.51,0,5.02.02,7.53.06v6.37c-3.53-.05-7.05-.07-10.58-.05Z"/>
        <path class="st0" d="M229.4,74.4c-3.64.38-7.27.8-10.9,1.26,0,3.58,0,7.16,0,10.74.63-.08,1.26-.16,1.89-.23v-3.32c3-.37,6-.71,9.01-1.02,2.17-.23,3.39-1.14,3.39-3.38v-1.22c0-2.2-1.22-3.04-3.39-2.82ZM230.94,79.07c0,.47-.49.91-.98.97-3.19.33-6.38.69-9.57,1.08v-3.96c3.19-.39,6.38-.75,9.57-1.08.49-.05.98.32.98.81v2.18Z"/>
        <path class="st0" d="M250.66,74.37v-1.73c-4.56.28-9.11.62-13.66,1.03v10.74c4.55-.4,9.1-.75,13.66-1.03v-1.73c-3.94.24-7.88.53-11.81.87v-2.9c3.5-.3,7-.56,10.51-.78,0-.58,0-1.15,0-1.73-3.5.22-7.01.49-10.51.78v-2.64c3.94-.34,7.87-.62,11.81-.87Z"/>
        <path class="st0" d="M307.3,74.08v-1.73c-4.56-.23-9.12-.41-13.68-.51v10.74c4.56.11,9.12.28,13.68.51v-1.73c-3.94-.2-7.89-.36-11.83-.47v-2.9c3.51.1,7.02.23,10.52.4v-1.73c-3.51-.17-7.01-.3-10.52-.4v-2.64c3.94.11,7.89.26,11.83.47Z"/>
        <path class="st0" d="M259.19,82.93c-2.41.11-3.89-.35-3.89-2.78,0-2.59,0-5.18,0-7.77.62-.03,1.23-.06,1.85-.09v8.1c0,.49.42.89.98.87,2.97-.14,5.94-.25,8.91-.34.56-.02.94-.45.94-.94v-8.1c.63-.02,1.27-.03,1.9-.05,0,2.59,0,5.18,0,7.77,0,2.46-1.29,3-3.89,3.08-2.27.07-4.53.16-6.8.26Z"/>
        <path class="st0" d="M314.78,74.52c-.56-.04-.98.36-.98.92v5.31c0,.49.42,1.01.98,1.05,3.07.2,6.13.43,9.2.69.49.04.98-.41.98-.9v-5.31c0-.56-.49-1.03-.98-1.07-3.06-.26-6.13-.49-9.2-.69ZM315.83,83.6c-2.58-.17-3.89-.67-3.89-3.22v-4.8c0-2.41,1.19-2.9,3.89-2.72,2.36.16,4.73.34,7.09.53,2.34.19,3.88.85,3.88,3.31v4.8c0,2.41-1.33,2.85-3.88,2.64-2.36-.19-4.73-.37-7.09-.53Z"/>
        <path class="st0" d="M344.59,75.66c-4.78-.6-9.56-1.14-14.36-1.6v1.73c2.09.2,4.17.42,6.26.65v9.01c.63.07,1.26.14,1.89.21v-9.01c2.07.24,4.14.48,6.2.74v-1.73Z"/>
      </g>
    </g>
  </g>
  <g>
    <path d="M192.04,367.16h-13.96v-46.84h27.04c7.28,0,12.53,1.37,15.74,4.12,3.21,2.75,4.82,7.23,4.82,13.46s-1.61,10.78-4.82,13.52c-3.21,2.75-8.46,4.12-15.74,4.12h-13.08v11.62ZM205,331.41h-12.97v13.02h12.97c2.49,0,4.21-.49,5.14-1.46s1.4-2.65,1.4-5.02-.47-4.11-1.4-5.08c-.93-.97-2.65-1.46-5.14-1.46Z"/>
    <path d="M266.91,367.16h-34.05v-46.84h13.96v35.16h20.09v11.68Z"/>
    <path d="M286.83,367.16h-14.89l16.88-46.84h22.19l16.82,46.84h-14.89l-3.15-9.23h-19.8l-3.15,9.23ZM293.95,346.25h11.86l-4.91-14.48h-2.04l-4.91,14.48Z"/>
    <path d="M348.56,367.16h-13.96v-46.84h17.05l19.39,28.62v-28.62h13.96v46.84h-17.4l-19.04-27.74v27.74Z"/>
  </g>
</svg>