<?xml version="1.0" encoding="UTF-8"?>
<svg id="Capa_1" data-name="Capa 1" xmlns="http://www.w3.org/2000/svg" viewBox="0 0 576 516.12">
  <path d="M204.19,344.77h11.19c5.16,0,9.14-1.45,11.92-4.33,2.78-2.89,4.18-6.66,4.18-11.31s-1.39-8.48-4.18-11.35c-2.79-2.86-6.76-4.29-11.92-4.29h-18.48v51.37h7.28v-20.09ZM204.19,319.77h10.43c1.89,0,3.51.36,4.87,1.07,1.35.71,2.4,1.78,3.14,3.18.74,1.41,1.11,3.11,1.11,5.1s-.37,3.68-1.11,5.06c-.74,1.38-1.79,2.44-3.14,3.18-1.36.74-2.98,1.11-4.87,1.11h-10.43v-18.71Z"/>
  <polygon points="275.2 358.11 249.43 358.11 249.43 313.48 242.15 313.48 242.15 364.86 275.2 364.86 275.2 358.11"/>
  <path d="M291.83,350.06h22.39l5.67,14.8h7.74l-20.32-51.37h-8.43l-20.32,51.37h7.59l5.67-14.8ZM303.03,320.92l8.74,22.7h-17.48l8.74-22.7Z"/>
  <polygon points="344.2 326.67 373.11 364.86 379.09 364.86 379.09 313.48 371.81 313.48 371.81 351.82 342.82 313.48 336.92 313.48 336.92 364.86 344.2 364.86 344.2 326.67"/>
  <path d="M173.5,122.73c30.11-37.11,70.77-57.55,114.49-57.55s84.39,20.45,114.5,57.55c15.81,19.49,27.94,42.76,36.02,68.5h12.89c-8.52-28.68-21.8-54.64-39.34-76.26-32.48-40.06-76.54-62.11-124.08-62.11s-91.57,22.05-124.06,62.11c-17.54,21.62-30.82,47.58-39.34,76.26h12.89c8.08-25.74,20.22-49.01,36.02-68.5Z"/>
  <path d="M402.5,393.39c-30.11,37.11-70.77,57.54-114.5,57.54s-84.38-20.43-114.49-57.54c-15.86-19.57-28.03-42.94-36.11-68.79h-12.89c8.51,28.79,21.82,54.86,39.43,76.56,32.49,40.05,76.54,62.11,124.06,62.11s91.6-22.06,124.08-62.11c17.6-21.69,30.91-47.76,39.43-76.56h-12.89c-8.08,25.85-20.25,49.23-36.11,68.79Z"/>
  <polygon points="342.66 154.22 342.66 139.44 288.03 98.86 233.34 139.47 233.34 154.26 288.03 113.65 342.66 154.22"/>
  <polygon points="233.34 182.75 233.37 182.79 288.03 142.19 342.66 182.77 342.66 167.99 288.03 127.42 233.34 168.03 233.34 182.75"/>
  <path d="M114.72,271.96c-3.06,4.32-8.06,7.1-14.08,7.1-10.43,0-17.41-8.15-17.41-17.81s6.97-17.72,17.41-17.72c7.16,0,12.63,3.83,15.4,9.11l14.45-6.42c-5.34-10.53-16.45-17.69-29.85-17.69-19.14,0-33.67,14.63-33.67,32.53s14.54,32.35,33.67,32.35c12.63,0,23.06-6.11,28.8-15.4l-14.72-6.05Z"/>
  <rect x="146.01" y="229.98" width="15.87" height="62.2"/>
  <polygon points="211.2 292.17 211.2 243.84 231.11 243.84 231.11 229.95 175.58 229.95 175.58 243.84 195.4 243.84 195.4 292.17 211.2 292.17"/>
  <path d="M298.18,292.14l-18.46-24.01c6.61-2.78,13-9.29,13-19.23.12-9.85-7.93-18.95-19.23-18.95h-28.71v62.2h15.9v-22.56h3.42l17.04,22.56h17.04ZM268.61,257.6h-7.93v-15.77h8.03c5.93,0,8.42,2.47,8.42,7.65s-2.96,8.12-8.52,8.12Z"/>
  <path d="M373.65,261.06c0-17.9-14.54-32.44-33.21-32.44s-33.3,14.54-33.3,32.44,14.63,32.35,33.3,32.35,33.21-14.35,33.21-32.35ZM323.4,261.25c0-9.38,6.88-17.69,17.04-17.69s16.95,8.3,16.95,17.69-6.79,17.81-16.95,17.81-17.04-8.24-17.04-17.81Z"/>
  <path d="M430.57,218.09c0-4.32-3.46-7.69-7.65-7.69-4.42,0-7.78,3.36-7.78,7.69s3.36,7.65,7.78,7.65,7.65-3.36,7.65-7.65Z"/>
  <polygon points="389.49 292.14 433.72 292.14 433.72 278.28 405.66 278.28 405.66 267.08 430.57 267.08 430.57 254.55 405.66 254.55 405.66 243.84 432.76 243.84 432.76 229.95 389.49 229.95 389.49 292.14"/>
  <path d="M408.16,218.09c0-4.32-3.33-7.69-7.66-7.69s-7.65,3.36-7.65,7.69,3.36,7.65,7.65,7.65,7.66-3.36,7.66-7.65Z"/>
  <polygon points="493.22 266.8 468.26 229.95 452.36 229.95 452.36 292.14 468.26 292.14 468.26 254.82 493.13 292.14 509.03 292.14 509.03 229.95 493.22 229.95 493.22 266.8"/>
</svg>